<svg width="40" height="41" viewBox="0 0 40 41" fill="none" xmlns="http://www.w3.org/2000/svg">
<rect y="0.629883" width="40" height="40" rx="20" fill="url(#paint0_linear_2595_16612)"/>
<path d="M20.1078 17.2354C21.8305 17.2354 23.2523 18.6572 23.2523 20.3799C23.2523 22.1299 21.8305 23.5244 20.1078 23.5244C18.3578 23.5244 16.9633 22.1299 16.9633 20.3799C16.9633 18.6572 18.3578 17.2354 20.1078 17.2354ZM20.1078 22.4307C21.2289 22.4307 22.1312 21.5283 22.1312 20.3799C22.1312 19.2588 21.2289 18.3564 20.1078 18.3564C18.9594 18.3564 18.057 19.2588 18.057 20.3799C18.057 21.5283 18.9867 22.4307 20.1078 22.4307ZM24.1 17.126C24.1 17.5361 23.7719 17.8643 23.3617 17.8643C22.9516 17.8643 22.6234 17.5361 22.6234 17.126C22.6234 16.7158 22.9516 16.3877 23.3617 16.3877C23.7719 16.3877 24.1 16.7158 24.1 17.126ZM26.1781 17.8643C26.2328 18.876 26.2328 21.9111 26.1781 22.9229C26.1234 23.9072 25.9047 24.7549 25.1937 25.4932C24.4828 26.2041 23.6078 26.4229 22.6234 26.4775C21.6117 26.5322 18.5766 26.5322 17.5648 26.4775C16.5805 26.4229 15.7328 26.2041 14.9945 25.4932C14.2836 24.7549 14.0648 23.9072 14.0102 22.9229C13.9555 21.9111 13.9555 18.876 14.0102 17.8643C14.0648 16.8799 14.2836 16.0049 14.9945 15.2939C15.7328 14.583 16.5805 14.3643 17.5648 14.3096C18.5766 14.2549 21.6117 14.2549 22.6234 14.3096C23.6078 14.3643 24.4828 14.583 25.1937 15.2939C25.9047 16.0049 26.1234 16.8799 26.1781 17.8643ZM24.8656 23.9893C25.1937 23.1963 25.1117 21.2822 25.1117 20.3799C25.1117 19.5049 25.1937 17.5908 24.8656 16.7705C24.6469 16.251 24.2367 15.8135 23.7172 15.6221C22.8969 15.2939 20.9828 15.376 20.1078 15.376C19.2055 15.376 17.2914 15.2939 16.4984 15.6221C15.9516 15.8408 15.5414 16.251 15.3227 16.7705C14.9945 17.5908 15.0766 19.5049 15.0766 20.3799C15.0766 21.2822 14.9945 23.1963 15.3227 23.9893C15.5414 24.5361 15.9516 24.9463 16.4984 25.165C17.2914 25.4932 19.2055 25.4111 20.1078 25.4111C20.9828 25.4111 22.8969 25.4932 23.7172 25.165C24.2367 24.9463 24.6742 24.5361 24.8656 23.9893Z" fill="#F0F2F5"/>
<path d="M13.9828 26.9971H26.2328V27.6807H13.9828V26.9971Z" fill="#F0F2F5"/>
<a href="https://www.instagram.com/__avua/">
<rect fill="black" fill-opacity="0" x="0.0999999" y="-1.05" width="12.25" height="16.1"/>
</a>
<defs>
<linearGradient id="paint0_linear_2595_16612" x1="33.3984" y1="32.767" x2="6.02711" y2="7.97019" gradientUnits="userSpaceOnUse">
<stop stop-color="#FEC053"/>
<stop offset="0.33" stop-color="#F2203E"/>
<stop offset="0.65" stop-color="#B729A8"/>
<stop offset="1" stop-color="#5342D6"/>
</linearGradient>
</defs>
</svg>
