<svg width="40" height="41" viewBox="0 0 40 41" fill="none" xmlns="http://www.w3.org/2000/svg">
<rect y="0.629883" width="40" height="40" rx="20" fill="#0073B1"/>
<path d="M16.7172 25.6299H14.1742V17.4541H16.7172V25.6299ZM15.432 16.3604C14.6391 16.3604 13.9828 15.6768 13.9828 14.8564C13.9828 14.0635 14.6391 13.4072 15.432 13.4072C16.2523 13.4072 16.9086 14.0635 16.9086 14.8564C16.9086 15.6768 16.2523 16.3604 15.432 16.3604ZM26.2055 25.6299H23.6898V21.665C23.6898 20.708 23.6625 19.5049 22.35 19.5049C21.0375 19.5049 20.8461 20.5166 20.8461 21.583V25.6299H18.3031V17.4541H20.7367V18.5752H20.7641C21.1195 17.9463 21.9398 17.2627 23.1703 17.2627C25.7406 17.2627 26.2328 18.958 26.2328 21.1455V25.6299H26.2055Z" fill="#F3F6F8"/>
<path d="M13.9828 26.9971H26.2328V27.6807H13.9828V26.9971Z" fill="#F3F6F8"/>
<a href="https://www.linkedin.com/company/94811948/admin/feed/posts/">
<rect fill="black" fill-opacity="0" x="0.0999999" y="-1.05" width="12.25" height="16.1"/>
</a>
</svg>
