<svg width="98" height="71" viewBox="0 0 98 71" fill="none" xmlns="http://www.w3.org/2000/svg">
<g clip-path="url(#clip0_1120_11388)">
<path d="M70.5006 6.42624C70.7864 6.42161 71.0718 6.4175 71.3576 6.41288C71.3592 6.41288 71.3612 6.41288 71.3628 6.41288V0.0955689C71.3628 0.0955689 71.3607 0.0955689 71.3602 0.0955689C69.3483 0.0596021 67.337 0.0411049 65.3251 0.0267182C63.3133 0.0113038 61.3014 0.00565193 59.289 0.00102762L56.2712 0L53.2534 0.00667955C51.2415 0.00976242 49.2291 0.0236353 47.2173 0.035453C43.1935 0.0621712 39.1693 0.103276 35.1456 0.156712C33.1337 0.178806 31.1213 0.214773 29.1094 0.245602L26.0916 0.293386L25.9009 0.297497C25.797 0.301607 25.6915 0.308801 25.5845 0.321132C25.3705 0.345281 25.1519 0.386386 24.9337 0.447016C24.4969 0.567248 24.0643 0.768662 23.6848 1.03482C23.3044 1.30046 22.9772 1.62775 22.7177 1.98639C22.4577 2.34555 22.2633 2.73656 22.132 3.14555C22.0012 3.55455 21.934 3.98307 21.9366 4.42135C21.9392 4.85911 22.0136 5.30819 22.1666 5.73979C22.3181 6.17087 22.5502 6.58244 22.8355 6.93234C23.1204 7.28379 23.4548 7.57101 23.7929 7.78989L23.9562 7.89574L24.071 7.95123C27.83 9.77012 31.5948 11.5777 35.3637 13.3766C37.7984 14.5373 40.2357 15.6933 42.6746 16.8463C39.9581 21.6916 38.5273 27.1606 38.5273 32.7349H44.8829C44.8829 28.0978 46.1095 23.5526 48.4336 19.5593L49.5248 20.0715C50.4703 20.5155 51.4152 20.9599 52.3658 21.3931C54.2661 22.2619 56.1838 23.0974 58.1197 23.8969C60.0561 24.6953 62.0116 25.4568 63.9925 26.1694C64.9829 26.5255 65.9801 26.8693 66.9855 27.1955C67.4895 27.3569 67.993 27.5182 68.5016 27.6703C69.0098 27.8234 69.52 27.9724 70.0379 28.1065L70.072 28.0397C69.6595 27.7006 69.2398 27.3764 68.8175 27.0568C68.3957 26.7357 67.9692 26.4238 67.5432 26.1124C66.6888 25.4928 65.825 24.8901 64.955 24.2997C63.215 23.1195 61.4492 21.9891 59.6648 20.8947C57.8799 19.8018 56.0763 18.7444 54.2557 17.7208C53.3459 17.2075 52.4305 16.7061 51.5155 16.2036L50.9857 15.9127C55.8029 10.12 62.8248 6.66722 70.5016 6.42675L70.5006 6.42624ZM33.3622 6.32862C33.9561 6.33684 34.5506 6.34506 35.1445 6.35174C39.1683 6.40517 43.1925 6.44576 47.2162 6.473C48.7541 6.48224 50.2925 6.49252 51.8303 6.49817C49.3878 8.29805 47.2013 10.4304 45.3429 12.8242C42.8198 11.4472 40.2946 10.0733 37.7669 8.70551C36.2993 7.91167 34.8307 7.11988 33.3616 6.32964L33.3622 6.32862Z" fill="white"/>
<path d="M63.2378 32.7346C67.7248 32.7346 71.3623 29.1191 71.3623 24.6591C71.3623 20.1991 67.7248 16.5835 63.2378 16.5835C58.7507 16.5835 55.1133 20.1991 55.1133 24.6591C55.1133 29.1191 58.7507 32.7346 63.2378 32.7346Z" fill="white"/>
<path d="M25.428 45.7734V70.2647H20.3032V68.1586C18.1347 69.7751 15.5723 70.6568 12.7143 70.6568C5.71666 70.6568 0 64.975 0 58.0191C0 51.0631 5.71666 45.3813 12.7143 45.3813C15.5723 45.3813 18.1844 46.3612 20.3032 47.9288V45.7734H25.428ZM12.7137 65.2684C16.8042 65.2684 20.0075 62.0843 20.0075 58.0185C20.0075 53.9528 16.8042 50.7692 12.7137 50.7692C8.62333 50.7692 5.42047 53.9533 5.42047 58.0185C5.42047 62.0838 8.62384 65.2684 12.7137 65.2684Z" fill="white"/>
<path d="M48.1206 45.7734C45.2625 53.9538 42.3548 62.0849 39.4476 70.2648H35.1106C32.2526 62.0844 29.394 53.9533 26.4873 45.7734H32.3513C33.7801 50.2796 35.1112 54.835 36.589 59.2928L37.1809 61.1051C37.1809 61.2032 37.23 61.3008 37.2791 61.399C37.4761 61.2032 37.7723 59.9295 38.0183 59.3905L42.2566 45.8223C44.2276 45.8223 46.1495 45.7734 48.1206 45.7734Z" fill="white"/>
<path d="M98.0003 45.7734V70.2647H92.8755V68.1586C90.7075 69.7751 88.1446 70.6568 85.2865 70.6568C78.2889 70.6568 72.5723 64.975 72.5723 58.0191C72.5723 51.0631 78.2889 45.3813 85.2865 45.3813C88.1446 45.3813 90.7566 46.3612 92.8755 47.9288V45.7734H98.0003ZM85.2865 65.2684C89.3764 65.2684 92.5798 62.0843 92.5798 58.0185C92.5798 53.9528 89.3769 50.7692 85.2865 50.7692C81.1961 50.7692 77.9927 53.9533 77.9927 58.0185C77.9927 62.0838 81.1956 65.2684 85.2865 65.2684Z" fill="white"/>
<path d="M70.9626 59.2081V45.8213H65.4915V60.1243C65.4915 63.6988 62.9281 65.2202 60.0685 65.2202C57.2088 65.2202 54.6506 62.7724 54.6506 59.8298V45.8218H49.2275V60.1777C49.2275 60.3884 49.2327 60.5934 49.2436 60.7989C49.4235 63.8941 50.9065 66.6476 53.1681 68.5112C53.1784 68.5163 53.1841 68.5215 53.1944 68.5323C55.0745 70.0747 57.4895 71.0011 60.1217 71.0011C62.1977 71.0011 64.1413 70.4221 65.7887 69.4165C68.6592 67.6793 70.6561 64.6525 70.9632 61.1462C70.9947 60.8302 71.0107 60.504 71.0107 60.1777C71.0107 59.8514 70.9947 59.5252 70.9632 59.2092L70.9626 59.2081Z" fill="white"/>
</g>
<defs>
<clipPath id="clip0_1120_11388">
<rect width="98" height="71" fill="white"/>
</clipPath>
</defs>
</svg>
